PathFileType	4	(X/Y/Z)	C:/Users/opensim2020/Desktop/walking_exp_matlab/subject02_walking09_straight_02.trc	
DataRate	CameraRate	NumFrames	NumMarkers	Units	OrigDataRate	OrigDataStartFrame	OrigNumFrames	
100.00	100.00	6	42	mm	100.00	1432	436	
Frame#	Time	LFHD			RFHD			LBHD			RBHD			C7			T10			CLAV			STRN			RBAK			LSHO			LUPA			LELB			LFRM			LWRA			LWRB			LFIN			RSHO			RUPA			RELB			RFRM			RWRA			RWRB			RFIN			LASI			RASI			LPSI			RPSI			LTHI			LKNE			LTIB			LANK			LHEE			LTOE			RTHI			RKNE			RTIB			RANK			RHEE			RTOE			*39			*40			*41			
		X1	Y1	Z1	X2	Y2	Z2	X3	Y3	Z3	X4	Y4	Z4	X5	Y5	Z5	X6	Y6	Z6	X7	Y7	Z7	X8	Y8	Z8	X9	Y9	Z9	X10	Y10	Z10	X11	Y11	Z11	X12	Y12	Z12	X13	Y13	Z13	X14	Y14	Z14	X15	Y15	Z15	X16	Y16	Z16	X17	Y17	Z17	X18	Y18	Z18	X19	Y19	Z19	X20	Y20	Z20	X21	Y21	Z21	X22	Y22	Z22	X23	Y23	Z23	X24	Y24	Z24	X25	Y25	Z25	X26	Y26	Z26	X27	Y27	Z27	X28	Y28	Z28	X29	Y29	Z29	X30	Y30	Z30	X31	Y31	Z31	X32	Y32	Z32	X33	Y33	Z33	X34	Y34	Z34	X35	Y35	Z35	X36	Y36	Z36	X37	Y37	Z37	X38	Y38	Z38	X39	Y39	Z39	X40	Y40	Z40	X41	Y41	Z41	X42	Y42	Z42	

219	2.180	1539.46106	521.41211	1746.76123	1396.17688	522.83002	1732.71265	1547.07532	646.40619	1663.19446	1405.26929	660.12274	1647.79565	1467.78540	693.62555	1525.35559	1461.12366	741.73230	1249.07544	1484.01892	552.19708	1460.98425	1471.58069	496.84122	1290.32007	1397.02563	745.13220	1351.21790	1651.22046	630.33295	1495.89441	1738.91321	638.62885	1295.25903	1759.36292	631.47174	1156.95349	1781.08264	609.95886	1028.78333	1762.56177	540.54803	908.24921	1792.68591	588.52600	908.42798	1803.30591	562.94617	848.05054	1284.66443	606.82855	1498.18030	1198.08167	619.15302	1306.22449	1179.71326	593.03210	1161.64636	1159.26147	548.31207	1049.88220	1176.94861	481.99911	932.00104	1144.62109	527.98419	922.06354	1142.72058	482.01508	864.88989	1597.29248	493.05301	996.93402	1341.25964	508.59503	974.41687	1528.50061	709.47003	1034.31665	1414.68262	721.20081	1027.12695	1653.87427	541.02356	687.15082	1622.98242	564.01813	483.20197	1620.78503	611.85126	292.79584	1579.23059	600.03992	71.64716	1527.74646	634.29749	44.20403	1592.44641	442.62976	34.67945	1253.01636	586.08130	674.20166	1251.81348	581.12500	475.48419	1253.69507	728.34033	365.93762	1289.60449	865.04547	232.25778	1355.52197	912.94562	207.32832	1248.27698	811.02753	83.59742	1453.10388	628.84924	1808.21960	-3360.32983	2845.12817	1034.13000			 
220	2.190	1540.94885	513.78992	1747.31543	1397.90393	515.68805	1733.11499	1549.08691	638.81219	1663.71631	1407.30750	652.69647	1648.11743	1470.57129	686.22974	1526.17822	1464.48523	734.51990	1249.83838	1485.95630	544.76965	1461.40161	1473.66711	489.89407	1290.78223	1400.64832	738.44019	1351.94373	1653.33337	621.21954	1496.83057	1742.02502	627.44769	1296.54846	1763.20898	617.93719	1158.15955	1784.27087	592.99060	1030.18835	1763.86230	521.15692	911.78461	1795.16028	568.46973	910.44415	1805.32837	540.68164	851.09241	1287.04468	600.11505	1498.44434	1200.58228	613.95087	1306.09644	1182.44604	588.61102	1161.63843	1162.06677	545.24316	1049.69617	1178.89636	479.34866	930.99200	1147.03882	525.79681	921.53613	1144.53308	480.12305	863.84387	1599.33484	485.95251	996.51715	1342.63660	502.13208	975.50269	1530.95593	702.70905	1034.86572	1417.33008	714.54474	1027.67114	1655.05920	536.54785	686.69495	1623.63672	561.70996	482.97690	1621.08228	611.06616	292.93668	1579.17664	599.94305	71.66764	1527.68762	634.29364	44.28740	1592.47351	442.58783	34.65498	1253.91003	574.47455	675.62512	1253.42761	566.98846	477.06390	1257.11035	713.57758	366.69467	1293.84265	848.47998	231.49911	1360.01794	894.97473	204.19460	1247.78796	792.69916	85.55923	1455.09595	621.60345	1808.71265	-3360.31567	2845.25269	1033.99170			 
221	2.200	1542.59924	506.15924	1747.94031	1399.63147	508.58481	1733.69971	1551.02283	631.12103	1664.20825	1409.26941	645.35535	1648.51892	1473.04163	678.70093	1526.83752	1467.75330	727.35797	1250.54285	1487.84656	537.25421	1461.81213	1475.54102	482.84164	1290.98108	1403.85852	731.66248	1352.59094	1655.52295	612.37695	1497.83972	1745.00171	616.13617	1297.81128	1767.22656	604.63599	1159.76440	1787.34302	576.15430	1031.99158	1765.47888	501.84595	915.66357	1797.53308	548.60181	912.89014	1807.40576	518.69641	854.68774	1289.11401	593.38239	1498.53882	1203.01514	608.52185	1306.20483	1184.92529	584.37567	1161.72595	1164.22998	541.57874	1049.26843	1181.16382	476.97717	930.27612	1149.16479	523.36859	921.01581	1146.69580	478.35843	863.22137	1601.15234	479.15359	996.56427	1344.23206	495.90790	976.57666	1533.09436	696.04584	1035.22827	1419.59570	707.80884	1028.22607	1656.12244	531.57050	686.28088	1624.21863	559.52911	482.76486	1621.43738	609.93805	293.06445	1579.13843	599.85217	71.70916	1527.54651	634.22729	44.28341	1592.52039	442.56470	34.62696	1254.97839	562.99084	677.00580	1255.11133	553.20056	478.78342	1260.38879	698.70801	366.88617	1297.78113	831.39020	229.79118	1364.41907	877.11523	200.69487	1247.58667	773.29010	86.72837	1456.78613	614.25067	1809.12878	-3360.32739	2845.27515	1034.19873			 
222	2.210	1544.18030	498.73819	1748.50073	1401.07666	501.30121	1734.02930	1552.91211	623.44171	1664.65356	1411.21057	638.11755	1648.85779	1475.56616	671.23584	1527.43347	1470.81982	720.23462	1251.17749	1489.64185	529.87689	1462.16870	1477.33826	475.90924	1291.14392	1406.75378	724.65240	1353.06042	1657.69897	603.53723	1498.81934	1748.19397	605.18225	1299.37097	1770.66394	591.14905	1161.12317	1790.42615	559.48572	1034.10181	1767.16150	482.80402	919.96643	1799.78479	528.82336	915.58612	1809.21387	496.91229	858.41528	1291.15149	586.69489	1498.69519	1205.86072	603.55701	1306.49670	1187.72180	580.25507	1161.66675	1166.54321	538.30249	1048.91687	1183.14697	474.45346	929.55237	1151.57080	521.26062	920.68976	1148.60718	476.50766	862.52942	1602.44360	472.69101	996.56891	1345.96338	489.24319	977.72821	1535.02002	689.47162	1035.43262	1421.44568	700.99213	1028.73279	1657.02246	527.65582	685.94788	1625.12207	557.25153	482.72549	1621.54944	608.42358	292.96246	1579.08398	599.77399	71.77502	1527.44824	634.22253	44.43600	1592.57190	442.60269	34.60970	1256.07788	551.82922	678.23755	1256.86914	539.63342	480.22781	1263.65161	683.71350	366.60837	1301.29944	813.74170	227.10983	1368.06079	858.34955	195.90955	1247.73657	752.76917	87.14664	1458.47839	606.86639	1809.47144	-3357.51074	2845.88477	1034.23901			 
223	2.220	1545.44434	491.01083	1748.90881	1402.25623	493.94272	1734.16284	1554.70715	615.72809	1665.10852	1413.09082	630.87726	1649.07922	1477.99207	663.81537	1527.92590	1473.66650	713.20325	1251.74536	1491.37720	522.49402	1462.48535	1479.01746	468.92615	1291.32312	1409.78625	718.07233	1353.66028	1659.71326	594.83813	1499.80640	1751.12683	594.14294	1300.88269	1774.24817	577.95392	1162.82349	1793.19202	542.88477	1036.24683	1768.54199	463.79684	924.28284	1802.02991	509.29514	918.67847	1810.64417	475.46143	862.29810	1293.35864	580.39508	1498.85059	1207.77429	597.75378	1306.56274	1190.00964	576.69971	1161.58374	1169.04077	535.16040	1048.89453	1184.95996	471.95901	928.84332	1153.55078	518.84467	920.23785	1150.45068	474.54196	861.92511	1604.40002	467.64322	996.80249	1348.00024	482.46552	978.98944	1536.62451	683.00244	1035.51624	1422.97742	694.17523	1029.28455	1657.75208	523.89532	685.60187	1625.31018	554.76282	482.45908	1622.03479	607.11194	293.41162	1578.99377	599.64038	71.86155	1527.34949	634.22528	44.59431	1592.61292	442.55414	34.57341	1257.13647	541.01544	679.40869	1258.76013	526.26276	481.59421	1266.74133	668.52460	365.78009	1304.53564	795.49255	223.61060	1371.18298	839.10693	190.40233	1248.11377	731.57153	86.71275	1460.01892	599.49030	1809.77734	-3360.31543	2845.25586	1034.11902			 
224	2.230	1546.58594	483.24106	1749.25391	1403.56836	486.76660	1734.32141	1556.39978	607.94958	1665.51453	1414.89197	623.65527	1649.23975	1480.28406	656.41547	1528.36475	1476.38696	706.21069	1252.21960	1492.98547	514.94366	1462.78662	1480.71289	462.00955	1291.42236	1412.76343	711.40015	1354.20386	1661.44861	586.04193	1500.65088	1753.80054	582.98499	1302.19336	1777.42920	564.74072	1164.36987	1795.82861	526.43872	1038.46997	1769.74622	444.99622	928.47809	1803.91296	489.83362	921.69989	1812.16138	454.38290	866.44745	1295.34229	573.89893	1498.93359	1209.64709	592.74835	1306.52795	1192.39819	572.66492	1161.57861	1170.99292	532.18781	1048.56470	1186.54980	469.24106	928.23364	1155.84656	516.65601	919.89423	1152.18091	472.49875	861.33331	1606.06494	461.59659	997.39581	1350.16040	475.71005	980.12952	1537.94543	676.52582	1035.47546	1424.04688	687.32355	1029.83936	1658.29175	520.06140	685.12799	1626.08325	552.22778	482.42612	1622.24634	605.64130	293.54855	1578.91553	599.48743	71.94799	1527.20715	634.15881	44.76983	1592.64807	442.49765	34.51641	1258.35547	530.54382	680.38568	1260.70728	513.00989	482.76932	1269.49854	653.12152	364.47916	1307.30469	776.69202	219.23059	1374.20862	819.50201	184.40790	1248.84009	709.48749	85.48877	1461.42566	591.95056	1809.99976	-3360.26416	2845.18042	1033.98389			 
